<?xml version="1.0" encoding="UTF-8"?>
<svg xmlns="http://www.w3.org/2000/svg" width="200" height="200" viewBox="0 0 200 200">
  <!-- Background circle -->
  <circle cx="100" cy="100" r="100" fill="#E3F2FD"/>
  
  <!-- Head -->
  <circle cx="100" cy="80" r="40" fill="#BBDEFB"/>
  
  <!-- Body/Coat -->
  <path d="M60 120 L50 200 H150 L140 120 Z" fill="#FFFFFF"/>
  
  <!-- Stethoscope -->
  <path d="M70 130 Q90 150 110 130 Q130 150 140 130" stroke="#2196F3" stroke-width="4" fill="none"/>
  <circle cx="75" cy="130" r="5" fill="#2196F3"/>
  
  <!-- Face elements -->
  <circle cx="85" cy="75" r="5" fill="#555555"/>
  <circle cx="115" cy="75" r="5" fill="#555555"/>
  <path d="M90 95 Q100 105 110 95" stroke="#555555" stroke-width="2" fill="none"/>
  
  <!-- Stethoscope ear piece -->
  <path d="M70 125 Q60 115 55 120" stroke="#2196F3" stroke-width="3" fill="none"/>
  
  <!-- Medical symbols -->
  <rect x="85" y="110" width="30" height="10" fill="#2196F3"/>
  <rect x="95" y="100" width="10" height="30" fill="#2196F3"/>
  
  <!-- Additional therapist elements - notepad -->
  <rect x="120" y="145" width="20" height="25" fill="#FFECB3" stroke="#FFC107" stroke-width="1"/>
  <line x1="125" y1="150" x2="135" y2="150" stroke="#FFC107" stroke-width="1"/>
  <line x1="125" y1="155" x2="135" y2="155" stroke="#FFC107" stroke-width="1"/>
  <line x1="125" y1="160" x2="135" y2="160" stroke="#FFC107" stroke-width="1"/>
  <line x1="125" y1="165" x2="135" y2="165" stroke="#FFC107" stroke-width="1"/>
</svg> 