<?xml version="1.0" encoding="UTF-8"?>
<svg xmlns="http://www.w3.org/2000/svg" width="200" height="200" viewBox="0 0 200 200">
  <!-- Background circle -->
  <circle cx="100" cy="100" r="100" fill="#FFF3E0"/>
  
  <!-- Head -->
  <circle cx="100" cy="75" r="40" fill="#FFE0B2"/>
  
  <!-- Hair -->
  <path d="M60 85 Q60 40 100 35 Q140 40 140 85 L140 95 Q120 110 80 110 Q60 95 60 85 Z" fill="#8D6E63"/>
  
  <!-- Body/Coat -->
  <path d="M60 115 L50 200 H150 L140 115 Z" fill="#FFFFFF"/>
  
  <!-- Stethoscope -->
  <path d="M70 130 Q90 150 110 130 Q130 150 140 130" stroke="#FF9800" stroke-width="4" fill="none"/>
  <circle cx="75" cy="130" r="5" fill="#FF9800"/>
  
  <!-- Face elements -->
  <circle cx="85" cy="70" r="5" fill="#555555"/>
  <circle cx="115" cy="70" r="5" fill="#555555"/>
  <path d="M90 90 Q100 100 110 90" stroke="#555555" stroke-width="2" fill="none"/>
  
  <!-- Ponytail -->
  <path d="M100 110 Q120 120 125 150" stroke="#8D6E63" stroke-width="10" fill="none"/>
  <circle cx="125" cy="150" r="8" fill="#8D6E63"/>
  
  <!-- Medical cross -->
  <rect x="85" y="110" width="30" height="10" fill="#FF9800"/>
  <rect x="95" y="100" width="10" height="30" fill="#FF9800"/>
  
  <!-- Patient Chart -->
  <rect x="60" y="150" width="25" height="35" fill="#EEEEEE" stroke="#BDBDBD"/>
  <line x1="65" y1="155" x2="80" y2="155" stroke="#BDBDBD" stroke-width="1.5"/>
  <line x1="65" y1="160" x2="80" y2="160" stroke="#BDBDBD" stroke-width="1.5"/>
  <line x1="65" y1="165" x2="80" y2="165" stroke="#BDBDBD" stroke-width="1.5"/>
  <line x1="65" y1="170" x2="75" y2="170" stroke="#BDBDBD" stroke-width="1.5"/>
  <line x1="65" y1="175" x2="70" y2="175" stroke="#BDBDBD" stroke-width="1.5"/>
</svg> 