<?xml version="1.0" encoding="UTF-8"?>
<svg xmlns="http://www.w3.org/2000/svg" width="200" height="200" viewBox="0 0 200 200">
  <!-- Background circle -->
  <circle cx="100" cy="100" r="100" fill="#E8F5E9"/>
  
  <!-- Head -->
  <circle cx="100" cy="75" r="40" fill="#C8E6C9"/>
  
  <!-- Hair -->
  <path d="M70 55 Q70 30 100 30 Q130 30 130 55 L130 75 Q115 90 85 90 Q70 75 70 55 Z" fill="#795548"/>
  <path d="M70 55 Q80 45 100 40 Q120 45 130 55" fill="#795548"/>
  
  <!-- Body/Coat -->
  <path d="M60 115 L50 200 H150 L140 115 Z" fill="#FFFFFF"/>
  
  <!-- Stethoscope -->
  <path d="M70 130 Q90 150 110 130 Q130 150 140 130" stroke="#4CAF50" stroke-width="4" fill="none"/>
  <circle cx="75" cy="130" r="5" fill="#4CAF50"/>
  
  <!-- Face elements -->
  <circle cx="85" cy="70" r="5" fill="#555555"/>
  <circle cx="115" cy="70" r="5" fill="#555555"/>
  <path d="M90 90 Q100 100 110 90" stroke="#555555" stroke-width="2" fill="none"/>
  
  <!-- Glasses -->
  <path d="M75 70 L85 70" stroke="#795548" stroke-width="2" fill="none"/>
  <path d="M115 70 L125 70" stroke="#795548" stroke-width="2" fill="none"/>
  <circle cx="85" cy="70" r="10" stroke="#795548" stroke-width="2" fill="none"/>
  <circle cx="115" cy="70" r="10" stroke="#795548" stroke-width="2" fill="none"/>
  
  <!-- Medical cross -->
  <rect x="85" y="110" width="30" height="10" fill="#4CAF50"/>
  <rect x="95" y="100" width="10" height="30" fill="#4CAF50"/>
  
  <!-- ID Badge -->
  <rect x="125" y="140" width="20" height="30" rx="2" fill="#EEEEEE" stroke="#BDBDBD"/>
  <rect x="130" y="145" width="10" height="10" fill="#4CAF50"/>
  <line x1="130" y1="160" x2="140" y2="160" stroke="#BDBDBD" stroke-width="2"/>
  <line x1="130" y1="165" x2="140" y2="165" stroke="#BDBDBD" stroke-width="2"/>
</svg> 